Coordinates
version=1
nRows=8
nColumns=40
inDegrees=yes

Units are S.I. units (second, meters, Newtons, ...)
Angles are in degrees.

endheader
time	pelvis_tilt	pelvis_list	pelvis_rotation	pelvis_tx	pelvis_ty	pelvis_tz	hip_flexion_r	hip_adduction_r	hip_rotation_r	knee_angle_r	knee_angle_r_beta	ankle_angle_r	subtalar_angle_r	mtp_angle_r	hip_flexion_l	hip_adduction_l	hip_rotation_l	knee_angle_l	knee_angle_l_beta	ankle_angle_l	subtalar_angle_l	mtp_angle_l	lumbar_extension	lumbar_bending	lumbar_rotation	arm_flex_r	arm_add_r	arm_rot_r	elbow_flex_r	pro_sup_r	wrist_flex_r	wrist_dev_r	arm_flex_l	arm_add_l	arm_rot_l	elbow_flex_l	pro_sup_l	wrist_flex_l	wrist_dev_l
     46.97000000	     -4.81148021	     -6.58576495	      3.55971561	      0.94114359	      0.92771903	      0.53928143	     14.90144755	      5.55513119	    -18.41589728	     17.63817028	     17.63817028	     11.01314050	      1.95203399	     -2.34046968	     38.19698599	    -15.20426462	      3.29645964	     68.97719922	     68.97719922	     12.43589775	    -19.07666817	     16.96695511	    -12.21065409	      5.95141169	      5.88993781	     21.64661590	    -17.77174058	     -0.38911003	     49.74817788	     44.56713346	      0.00000000	      0.00000000	      0.94919175	     -7.33376824	     -2.15854472	     35.07059940	     44.95862443	      0.00000000	      0.00000000
     46.98150000	     -4.76913555	     -6.64557202	      3.65542690	      0.93972313	      0.92797907	      0.53967220	     14.18774700	      5.72490638	    -18.52453737	     17.29519414	     17.29519414	     11.30259352	      2.26120235	     -2.38997522	     39.16404992	    -15.18583507	      3.42444307	     67.33596137	     67.33596137	     12.22912214	    -19.07029466	     17.00385548	    -12.24410892	      6.02702191	      5.60273502	     23.93066994	    -17.73131849	     -0.46543348	     51.94873905	     44.51732185	      0.00000000	      0.00000000	     -0.77191700	     -7.44766782	     -2.03559240	     33.68809370	     44.93698517	      0.00000000	      0.00000000
     46.99300000	     -4.70212507	     -6.70518042	      3.74847399	      0.93831174	      0.92820904	      0.54006223	     13.45830807	      5.89532638	    -18.63458722	     16.96261723	     16.96261723	     11.59791917	      2.62004097	     -2.44500122	     39.96720994	    -15.16658892	      3.51179297	     65.52513935	     65.52513935	     11.96159350	    -19.06054164	     17.05274027	    -12.34129008	      6.10578414	      5.40811823	     26.08189332	    -17.79142513	     -0.38474507	     54.47430933	     44.44909960	      0.00000000	      0.00000000	     -2.33532188	     -7.48855792	     -1.89833227	     32.17206585	     44.91656903	      0.00000000	      0.00000000
     47.00450000	     -4.65695607	     -6.77340832	      3.82676451	      0.93694187	      0.92833978	      0.54036328	     12.75292479	      6.06612560	    -18.77816791	     16.62550771	     16.62550771	     11.89359189	      3.02542599	     -2.49469137	     40.65754275	    -15.14222934	      3.57544270	     63.55323090	     63.55323090	     11.65222750	    -19.04064962	     17.07319439	    -12.42261489	      6.19495293	      5.39218145	     27.98840943	    -18.05985531	     -0.13254812	     57.42407283	     44.36389364	      0.00000000	      0.00000000	     -3.67646378	     -7.45665784	     -1.72368775	     30.48915916	     44.90044958	      0.00000000	      0.00000000
     47.01600000	     -4.60500021	     -6.84815205	      3.87703428	      0.93561039	      0.92844578	      0.54059205	     12.07428511	      6.21773910	    -18.93811130	     16.36138654	     16.36138654	     12.22970040	      3.53409043	     -2.52340761	     41.16454524	    -15.11925205	      3.61381427	     61.36455928	     61.36455928	     11.18127834	    -19.00291578	     16.76023236	    -12.53361949	      6.32734008	      6.18964789	     28.80656967	    -19.32189795	      0.51680833	     62.14086496	     44.24694892	      0.00000000	      0.00000000	     -4.23052564	     -7.33660481	     -1.28760234	     28.05337215	     44.91206076	      0.00000000	      0.00000000
     47.02750000	     -4.56847601	     -6.93630265	      3.92836364	      0.93430268	      0.92851443	      0.54071523	     11.36378870	      6.42019816	    -19.01281694	     15.96802148	     15.96802148	     12.46037391	      3.83274471	     -2.51447685	     41.56756611	    -15.06493179	      3.69088095	     59.04217593	     59.04217593	     10.87040327	    -18.91574296	     16.92414488	    -12.58629266	      6.45018439	      6.09524767	     30.92159730	    -19.15390176	      0.20840866	     64.32353205	     44.21409878	      0.00000000	      0.00000000	     -5.66939726	     -7.33988537	     -1.07210532	     26.99620755	     44.87695330	      0.00000000	      0.00000000
     47.03900000	     -4.55283207	     -7.01647886	      3.96787995	      0.93303847	      0.92850407	      0.54067660	     10.66871746	      6.59181171	    -19.12195515	     15.57624532	     15.57624532	     12.72253376	      4.26926000	     -2.53795134	     41.83220204	    -14.96209568	      3.78262791	     56.53630526	     56.53630526	     10.54380405	    -18.78285371	     16.90461339	    -12.62617726	      6.57412289	      6.06800890	     32.82440525	    -19.07347674	      0.04554820	     66.83312432	     44.16359869	      0.00000000	      0.00000000	     -7.02929279	     -7.32791823	     -0.82023837	     26.08230905	     44.83332418	      0.00000000	      0.00000000
     47.05050000	     -4.54062559	     -7.07516473	      3.99871204	      0.93181282	      0.92848983	      0.54047198	      9.94581078	      6.73673911	    -19.22382299	     15.13713804	     15.13713804	     12.97291349	      4.74674404	     -2.56098666	     41.93184397	    -14.80254644	      3.88601263	     53.84219169	     53.84219169	     10.19575518	    -18.57815766	     16.78300203	    -12.66816105	      6.69435123	      6.03787332	     34.63750468	    -18.92703400	     -0.06534544	     69.47245135	     44.10377648	      0.00000000	      0.00000000	     -8.35758451	     -7.30643910	     -0.55990657	     25.36235028	     44.78185836	      0.00000000	      0.00000000
